<?xml version="1.0" standalone="no"?><svg xmlns="http://www.w3.org/2000/svg" viewBox="0 0 1440 320"><path fill="#FFAD05" fill-opacity="0.55" d="M0,128L40,154.7C80,181,160,235,240,229.3C320,224,400,160,480,160C560,160,640,224,720,208C800,192,880,96,960,85.3C1040,75,1120,149,1200,160C1280,171,1360,117,1400,90.7L1440,64L1440,320L1400,320C1360,320,1280,320,1200,320C1120,320,1040,320,960,320C880,320,800,320,720,320C640,320,560,320,480,320C400,320,320,320,240,320C160,320,80,320,40,320L0,320Z"></path></svg>